<?xml version="1.0" encoding="UTF-8"?>
<svg viewBox="0 0 400 440" xmlns="http://www.w3.org/2000/svg" xmlns:xlink="http://www.w3.org/1999/xlink"><ellipse cx="200" cy="412" rx="110" ry="12" fill="#000" opacity="0.08"></ellipse><g><g transform=""><ellipse cx="125" cy="88" rx="22" ry="26" fill="#FF9A5C" stroke="#E8824A" stroke-width="7" transform="rotate(-18 125 88)"></ellipse><ellipse cx="125" cy="90" rx="12" ry="16" fill="#FF8FA0" transform="rotate(-18 125 90)"></ellipse></g><g transform="translate(550 0) scale(-1 1)"><ellipse cx="275" cy="88" rx="22" ry="26" fill="#FF9A5C" stroke="#E8824A" stroke-width="7" transform="rotate(-18 275 88)"></ellipse><ellipse cx="275" cy="90" rx="12" ry="16" fill="#FF8FA0" transform="rotate(-18 275 90)"></ellipse></g></g><g transform="rotate(-2 200 240)"><g><ellipse cx="160" cy="390" rx="22" ry="12" fill="#E8824A"></ellipse><ellipse cx="160" cy="388" rx="20" ry="10" fill="#FF8FA0"></ellipse><ellipse cx="240" cy="390" rx="22" ry="12" fill="#E8824A"></ellipse><ellipse cx="240" cy="388" rx="20" ry="10" fill="#FF8FA0"></ellipse></g><path d="M 90 268 C 80 285, 75 320, 90 355 C 110 395, 160 410, 200 410 C 240 410, 290 395, 310 355 C 325 320, 320 285, 310 268 Q 200 305, 90 268 Z" fill="#FFB184" stroke="#E8824A" stroke-width="7" stroke-linejoin="round"></path><path d="M 200 60 C 110 60, 60 130, 60 200 C 60 235, 78 260, 90 268 Q 200 295, 310 268 C 322 260, 340 235, 340 200 C 340 130, 290 60, 200 60 Z" fill="#FFB184" stroke="#E8824A" stroke-width="7" stroke-linejoin="round"></path><path d="M 88 266 Q 200 300 312 266" stroke="#6B3E1F" stroke-width="9" stroke-linecap="round" fill="none"></path><g transform="translate(200 285)"><ellipse cx="0" cy="2" rx="22" ry="8" fill="#EADDC4" opacity="0.9"></ellipse><ellipse cx="0" cy="0" rx="22" ry="8" fill="#FFFFFF" stroke="#E8824A" stroke-width="3"></ellipse><ellipse cx="0" cy="0" rx="15" ry="4.5" fill="none" stroke="#E8824A" stroke-width="1.8" opacity="0.55"></ellipse><path d="M -11 -3 Q -5 -5 2 -5" stroke="#FFFFFF" stroke-width="2" stroke-linecap="round" fill="none" opacity="0.95"></path></g></g><g transform="translate(200 58)"><circle cx="0" cy="-4" r="40" fill="#FFD93D" opacity="0.38"></circle><text x="0" y="14" text-anchor="middle" font-family="&#39;Hiragino Maru Gothic ProN&#39;,&#39;Yu Gothic&#39;,&#39;Zen Maru Gothic&#39;,&#39;M PLUS Rounded 1c&#39;,&#39;Noto Sans JP&#39;,sans-serif" font-size="78" font-weight="900" fill="#E8824A" stroke="#6B3E1F" stroke-width="6" paint-order="stroke fill" stroke-linejoin="round">?</text><g transform="translate(-46 -14)"><path d="M 0 -6 L 0 6 M -6 0 L 6 0" stroke="#FFD93D" stroke-width="3" stroke-linecap="round"></path></g><g transform="translate(44 4)"><path d="M 0 -5 L 0 5 M -5 0 L 5 0" stroke="#FFD93D" stroke-width="3" stroke-linecap="round"></path></g></g><g><circle cx="156" cy="172" r="26" fill="#6B3E1F"></circle><circle cx="163" cy="163" r="9.88" fill="#FFFFFF"></circle><circle cx="148" cy="181" r="5.2" fill="#FFFFFF"></circle></g><g><circle cx="244" cy="172" r="26" fill="#6B3E1F"></circle><circle cx="237" cy="163" r="9.88" fill="#FFFFFF"></circle><circle cx="252" cy="181" r="5.2" fill="#FFFFFF"></circle></g><path d="M 148 136 Q 156 131 164 134" stroke="#6B3E1F" stroke-width="5" stroke-linecap="round" fill="none"></path><path d="M 252 134 Q 244 131 236 136" stroke="#6B3E1F" stroke-width="5" stroke-linecap="round" fill="none"></path><path d="M 194 199 Q 200 208 206 199 Q 200 197 194 199 Z" fill="#6B3E1F" stroke="#6B3E1F" stroke-width="2" stroke-linejoin="round"></path><g><circle cx="120" cy="218" r="16" fill="#FF9AA8" opacity="0.95"></circle><circle cx="115.2" cy="213.2" r="5.6" fill="#FFBFC8" opacity="0.85"></circle></g><g><circle cx="280" cy="218" r="16" fill="#FF9AA8" opacity="0.95"></circle><circle cx="275.2" cy="213.2" r="5.6" fill="#FFBFC8" opacity="0.85"></circle></g><path d="M 183 222 Q 189 218 195 222 T 207 222" stroke="#6B3E1F" stroke-width="7" stroke-linecap="round" fill="none"></path><circle cx="248" cy="248" r="22" fill="#FFB184" stroke="#E8824A" stroke-width="7"></circle><g><g transform="translate(82 282) rotate(-5) scale(1)"><rect x="-7" y="-72" width="14" height="74" rx="7" fill="#F2F4F7" stroke="#6B3E1F" stroke-width="4.8999999999999995"></rect><rect x="-4" y="-70" width="4" height="70" rx="2" fill="#FFFFFF" opacity="0.7"></rect><ellipse cx="0" cy="-106" rx="26.52" ry="29.9" fill="#F2F4F7" stroke="#6B3E1F" stroke-width="4.8999999999999995"></ellipse><ellipse cx="0" cy="-108" rx="18.700000000000003" ry="23.400000000000002" fill="#C9CFD6" opacity="0.55"></ellipse><ellipse cx="-8.5" cy="-116" rx="6" ry="10" fill="#FFFFFF" opacity="0.85"></ellipse></g><circle cx="82" cy="282" r="22" fill="#FFB184" stroke="#E8824A" stroke-width="7"></circle></g></svg>