<?xml version="1.0" encoding="UTF-8"?>
<svg viewBox="0 0 400 440" xmlns="http://www.w3.org/2000/svg" xmlns:xlink="http://www.w3.org/1999/xlink"><g opacity="0.55"><line x1="200" y1="70" x2="200" y2="20" stroke="#FFD93D" stroke-width="6" stroke-linecap="round" opacity="0.85"></line><line x1="275" y1="90.0961894323342" x2="300" y2="46.794919243112275" stroke="#FFD93D" stroke-width="6" stroke-linecap="round" opacity="0.85"></line><line x1="329.9038105676658" y1="145" x2="373.20508075688775" y2="120.00000000000001" stroke="#FFD93D" stroke-width="6" stroke-linecap="round" opacity="0.85"></line><line x1="350" y1="220" x2="400" y2="220" stroke="#FFD93D" stroke-width="6" stroke-linecap="round" opacity="0.85"></line><line x1="329.9038105676658" y1="295" x2="373.20508075688775" y2="320" stroke="#FFD93D" stroke-width="6" stroke-linecap="round" opacity="0.85"></line><line x1="275" y1="349.9038105676658" x2="300" y2="393.2050807568877" stroke="#FFD93D" stroke-width="6" stroke-linecap="round" opacity="0.85"></line><line x1="200" y1="370" x2="200" y2="420" stroke="#FFD93D" stroke-width="6" stroke-linecap="round" opacity="0.85"></line><line x1="125.00000000000003" y1="349.9038105676658" x2="100.00000000000004" y2="393.20508075688775" stroke="#FFD93D" stroke-width="6" stroke-linecap="round" opacity="0.85"></line><line x1="70.0961894323342" y1="295" x2="26.794919243112247" y2="320" stroke="#FFD93D" stroke-width="6" stroke-linecap="round" opacity="0.85"></line><line x1="50" y1="220.00000000000003" x2="0" y2="220.00000000000003" stroke="#FFD93D" stroke-width="6" stroke-linecap="round" opacity="0.85"></line><line x1="70.0961894323342" y1="145" x2="26.794919243112275" y2="119.99999999999997" stroke="#FFD93D" stroke-width="6" stroke-linecap="round" opacity="0.85"></line><line x1="124.99999999999993" y1="90.09618943233426" x2="99.99999999999991" y2="46.79491924311233" stroke="#FFD93D" stroke-width="6" stroke-linecap="round" opacity="0.85"></line></g><circle cx="50" cy="50" r="8" fill="#FF4D6D" stroke="#6B3E1F" stroke-width="2"></circle><rect x="340" y="55" width="20" height="10" rx="2" fill="#FFD93D" stroke="#6B3E1F" stroke-width="2" transform="rotate(23 350 60)"></rect><circle cx="80" cy="120" r="7" fill="#7BC7F2" stroke="#6B3E1F" stroke-width="2"></circle><rect x="321" y="135.5" width="18" height="9" rx="2" fill="#FF4D6D" stroke="#6B3E1F" stroke-width="2" transform="rotate(69 330 140)"></rect><circle cx="30" cy="200" r="8" fill="#FFD93D" stroke="#6B3E1F" stroke-width="2"></circle><rect x="360" y="215" width="20" height="10" rx="2" fill="#A3D977" stroke="#6B3E1F" stroke-width="2" transform="rotate(115 370 220)"></rect><circle cx="60" cy="280" r="7" fill="#FF4D6D" stroke="#6B3E1F" stroke-width="2"></circle><rect x="332" y="296" width="16" height="8" rx="2" fill="#FFD93D" stroke="#6B3E1F" stroke-width="2" transform="rotate(161 340 300)"></rect><circle cx="100" cy="40" r="7" fill="#A3D977" stroke="#6B3E1F" stroke-width="2"></circle><rect x="292" y="26" width="16" height="8" rx="2" fill="#7BC7F2" stroke="#6B3E1F" stroke-width="2" transform="rotate(207 300 30)"></rect><ellipse cx="200" cy="412" rx="100" ry="11" fill="#000" opacity="0.08"></ellipse><g><g transform=""><ellipse cx="125" cy="88" rx="22" ry="26" fill="#FF9A5C" stroke="#E8824A" stroke-width="7" transform="rotate(-18 125 88)"></ellipse><ellipse cx="125" cy="90" rx="12" ry="16" fill="#FF8FA0" transform="rotate(-18 125 90)"></ellipse></g><g transform="translate(550 0) scale(-1 1)"><ellipse cx="275" cy="88" rx="22" ry="26" fill="#FF9A5C" stroke="#E8824A" stroke-width="7" transform="rotate(-18 275 88)"></ellipse><ellipse cx="275" cy="90" rx="12" ry="16" fill="#FF8FA0" transform="rotate(-18 275 90)"></ellipse></g></g><g transform="rotate(0 200 240)"><g><ellipse cx="160" cy="390" rx="22" ry="12" fill="#E8824A"></ellipse><ellipse cx="160" cy="388" rx="20" ry="10" fill="#FF8FA0"></ellipse><ellipse cx="240" cy="390" rx="22" ry="12" fill="#E8824A"></ellipse><ellipse cx="240" cy="388" rx="20" ry="10" fill="#FF8FA0"></ellipse></g><path d="M 90 268 C 80 285, 75 320, 90 355 C 110 395, 160 410, 200 410 C 240 410, 290 395, 310 355 C 325 320, 320 285, 310 268 Q 200 305, 90 268 Z" fill="#FFB184" stroke="#E8824A" stroke-width="7" stroke-linejoin="round"></path><path d="M 200 60 C 110 60, 60 130, 60 200 C 60 235, 78 260, 90 268 Q 200 295, 310 268 C 322 260, 340 235, 340 200 C 340 130, 290 60, 200 60 Z" fill="#FFB184" stroke="#E8824A" stroke-width="7" stroke-linejoin="round"></path><path d="M 88 266 Q 200 300 312 266" stroke="#6B3E1F" stroke-width="9" stroke-linecap="round" fill="none"></path><g transform="translate(200 285)"><ellipse cx="0" cy="2" rx="22" ry="8" fill="#EADDC4" opacity="0.9"></ellipse><ellipse cx="0" cy="0" rx="22" ry="8" fill="#FFFFFF" stroke="#E8824A" stroke-width="3"></ellipse><ellipse cx="0" cy="0" rx="15" ry="4.5" fill="none" stroke="#E8824A" stroke-width="1.8" opacity="0.55"></ellipse><path d="M -11 -3 Q -5 -5 2 -5" stroke="#FFFFFF" stroke-width="2" stroke-linecap="round" fill="none" opacity="0.95"></path></g></g><path d="M 137 184 Q 156 168 175 184" stroke="#6B3E1F" stroke-width="7" stroke-linecap="round" fill="none"></path><path d="M 225 184 Q 244 168 263 184" stroke="#6B3E1F" stroke-width="7" stroke-linecap="round" fill="none"></path><path d="M 148 148 Q 156 143 164 146" stroke="#6B3E1F" stroke-width="5" stroke-linecap="round" fill="none"></path><path d="M 252 146 Q 244 143 236 148" stroke="#6B3E1F" stroke-width="5" stroke-linecap="round" fill="none"></path><path d="M 194 202 Q 200 211 206 202 Q 200 200 194 202 Z" fill="#6B3E1F" stroke="#6B3E1F" stroke-width="2" stroke-linejoin="round"></path><g><circle cx="116" cy="220" r="19" fill="#FF9AA8" opacity="0.95"></circle><circle cx="110.3" cy="214.3" r="6.6499999999999995" fill="#FFBFC8" opacity="0.85"></circle></g><g><circle cx="284" cy="220" r="19" fill="#FF9AA8" opacity="0.95"></circle><circle cx="278.3" cy="214.3" r="6.6499999999999995" fill="#FFBFC8" opacity="0.85"></circle></g><g><path d="M 177 214&#xA;                Q 177 244 200 244&#xA;                Q 223 244 223 214&#xA;                Q 200 220 177 214 Z" fill="#6B3E1F" stroke="#6B3E1F" stroke-width="7" stroke-linejoin="round"></path><g transform="translate(194 227.2) rotate(22)"><path d="M -12 0 C -12 -10, 12 -10, 12 0 C 15 12, 15 24, 10 30 C 4 34, -4 34, -10 30 C -15 24, -15 12, -12 0 Z" fill="#F28096" stroke="#6B3E1F" stroke-width="3" stroke-linejoin="round" stroke-linecap="round"></path><path d="M 0 -2 L 0 24" stroke="#D85F78" stroke-width="2" opacity="0.6" stroke-linecap="round"></path></g></g><g><g transform="translate(100 175) rotate(0) scale(1)"><rect x="-7" y="-72" width="14" height="74" rx="7" fill="#F2F4F7" stroke="#6B3E1F" stroke-width="4.8999999999999995"></rect><rect x="-4" y="-70" width="4" height="70" rx="2" fill="#FFFFFF" opacity="0.7"></rect><ellipse cx="0" cy="-106" rx="26.52" ry="29.9" fill="#F2F4F7" stroke="#6B3E1F" stroke-width="4.8999999999999995"></ellipse><ellipse cx="0" cy="-108" rx="18.700000000000003" ry="23.400000000000002" fill="#C9CFD6" opacity="0.55"></ellipse><ellipse cx="-8.5" cy="-116" rx="6" ry="10" fill="#FFFFFF" opacity="0.85"></ellipse></g><circle cx="100" cy="175" r="22" fill="#FFB184" stroke="#E8824A" stroke-width="7"></circle></g><g><circle cx="300" cy="175" r="22" fill="#FFB184" stroke="#E8824A" stroke-width="7"></circle></g></svg>