<?xml version="1.0" encoding="UTF-8"?>
<svg viewBox="0 0 400 440" xmlns="http://www.w3.org/2000/svg" xmlns:xlink="http://www.w3.org/1999/xlink"><ellipse cx="200" cy="412" rx="110" ry="12" fill="#000" opacity="0.08"></ellipse><g><g transform=""><ellipse cx="125" cy="88" rx="22" ry="26" fill="#FF9A5C" stroke="#E8824A" stroke-width="7" transform="rotate(-18 125 88)"></ellipse><ellipse cx="125" cy="90" rx="12" ry="16" fill="#FF8FA0" transform="rotate(-18 125 90)"></ellipse></g><g transform="translate(550 0) scale(-1 1)"><ellipse cx="275" cy="88" rx="22" ry="26" fill="#FF9A5C" stroke="#E8824A" stroke-width="7" transform="rotate(-18 275 88)"></ellipse><ellipse cx="275" cy="90" rx="12" ry="16" fill="#FF8FA0" transform="rotate(-18 275 90)"></ellipse></g></g><g transform="rotate(0 200 240)"><g><ellipse cx="160" cy="390" rx="22" ry="12" fill="#E8824A"></ellipse><ellipse cx="160" cy="388" rx="20" ry="10" fill="#FF8FA0"></ellipse><ellipse cx="240" cy="390" rx="22" ry="12" fill="#E8824A"></ellipse><ellipse cx="240" cy="388" rx="20" ry="10" fill="#FF8FA0"></ellipse></g><path d="M 90 268 C 80 285, 75 320, 90 355 C 110 395, 160 410, 200 410 C 240 410, 290 395, 310 355 C 325 320, 320 285, 310 268 Q 200 305, 90 268 Z" fill="#FFB184" stroke="#E8824A" stroke-width="7" stroke-linejoin="round"></path><path d="M 200 60 C 110 60, 60 130, 60 200 C 60 235, 78 260, 90 268 Q 200 295, 310 268 C 322 260, 340 235, 340 200 C 340 130, 290 60, 200 60 Z" fill="#FFB184" stroke="#E8824A" stroke-width="7" stroke-linejoin="round"></path><path d="M 88 266 Q 200 300 312 266" stroke="#6B3E1F" stroke-width="9" stroke-linecap="round" fill="none"></path><g transform="translate(200 285)"><ellipse cx="0" cy="2" rx="22" ry="8" fill="#EADDC4" opacity="0.9"></ellipse><ellipse cx="0" cy="0" rx="22" ry="8" fill="#FFFFFF" stroke="#E8824A" stroke-width="3"></ellipse><ellipse cx="0" cy="0" rx="15" ry="4.5" fill="none" stroke="#E8824A" stroke-width="1.8" opacity="0.55"></ellipse><path d="M -11 -3 Q -5 -5 2 -5" stroke="#FFFFFF" stroke-width="2" stroke-linecap="round" fill="none" opacity="0.95"></path></g></g><g><circle cx="156" cy="178" r="26" fill="#6B3E1F"></circle><circle cx="163" cy="169" r="9.88" fill="#FFFFFF"></circle><circle cx="148" cy="187" r="5.2" fill="#FFFFFF"></circle></g><g><circle cx="244" cy="178" r="26" fill="#6B3E1F"></circle><circle cx="237" cy="169" r="9.88" fill="#FFFFFF"></circle><circle cx="252" cy="187" r="5.2" fill="#FFFFFF"></circle></g><path d="M 148 142 Q 156 137 164 140" stroke="#6B3E1F" stroke-width="5" stroke-linecap="round" fill="none"></path><path d="M 252 140 Q 244 137 236 142" stroke="#6B3E1F" stroke-width="5" stroke-linecap="round" fill="none"></path><path d="M 194 202 Q 200 211 206 202 Q 200 200 194 202 Z" fill="#6B3E1F" stroke="#6B3E1F" stroke-width="2" stroke-linejoin="round"></path><g><circle cx="118" cy="218" r="17" fill="#FF9AA8" opacity="0.95"></circle><circle cx="112.9" cy="212.9" r="5.949999999999999" fill="#FFBFC8" opacity="0.85"></circle></g><g><circle cx="282" cy="218" r="17" fill="#FF9AA8" opacity="0.95"></circle><circle cx="276.9" cy="212.9" r="5.949999999999999" fill="#FFBFC8" opacity="0.85"></circle></g><g><path d="M 182 220 Q 200 239.8 218 220" stroke="#6B3E1F" stroke-width="7" stroke-linecap="round" fill="#6B3E1F"></path><g transform="translate(192 232.6) rotate(18)"><path d="M -10 0 C -10 -8, 10 -8, 10 0 C 12 10, 12 20, 8 26 C 3 30, -3 30, -8 26 C -12 20, -12 10, -10 0 Z" fill="#F28096" stroke="#6B3E1F" stroke-width="3" stroke-linejoin="round" stroke-linecap="round"></path><path d="M 0 0 L 0 20" stroke="#D85F78" stroke-width="1.8" opacity="0.6" stroke-linecap="round"></path></g></g><g><g transform="translate(86 258) rotate(-8) scale(1)"><rect x="-7" y="-72" width="14" height="74" rx="7" fill="#F2F4F7" stroke="#6B3E1F" stroke-width="4.8999999999999995"></rect><rect x="-4" y="-70" width="4" height="70" rx="2" fill="#FFFFFF" opacity="0.7"></rect><ellipse cx="0" cy="-106" rx="26.52" ry="29.9" fill="#F2F4F7" stroke="#6B3E1F" stroke-width="4.8999999999999995"></ellipse><ellipse cx="0" cy="-108" rx="18.700000000000003" ry="23.400000000000002" fill="#C9CFD6" opacity="0.55"></ellipse><ellipse cx="-8.5" cy="-116" rx="6" ry="10" fill="#FFFFFF" opacity="0.85"></ellipse></g><circle cx="86" cy="258" r="22" fill="#FFB184" stroke="#E8824A" stroke-width="7"></circle></g><circle cx="316" cy="270" r="22" fill="#FFB184" stroke="#E8824A" stroke-width="7"></circle></svg>